<?xml version="1.0" encoding="UTF-8" standalone="no" ?>
<!DOCTYPE svg PUBLIC "-//W3C//DTD SVG 1.1//EN" "http://www.w3.org/Graphics/SVG/1.1/DTD/svg11.dtd">
<svg xmlns="http://www.w3.org/2000/svg" xmlns:xlink="http://www.w3.org/1999/xlink" version="1.1" width="1080" height="1080" viewBox="0 0 1080 1080" xml:space="preserve">
<desc>Created with Fabric.js 5.2.4</desc>
<defs>
</defs>
<g transform="matrix(1 0 0 1 540 540)" id="22b10411-05c6-43d5-9306-769711938879"  >
<rect style="stroke: none; stroke-width: 1; stroke-dasharray: none; stroke-linecap: butt; stroke-dashoffset: 0; stroke-linejoin: miter; stroke-miterlimit: 4; fill: rgb(255,255,255); fill-rule: nonzero; opacity: 1; visibility: hidden;" vector-effect="non-scaling-stroke"  x="-540" y="-540" rx="0" ry="0" width="1080" height="1080" />
</g>
<g transform="matrix(1 0 0 1 540 540)" id="ad350d10-7224-4181-aec2-b4b895c64e08"  >
</g>
<g transform="matrix(1 0 0 1 540 540)"  >
<g style="" vector-effect="non-scaling-stroke"   >
		<g transform="matrix(0.13 0 0 -0.13 37.79 -69.27)"  >
<path style="stroke: none; stroke-width: 1; stroke-dasharray: none; stroke-linecap: butt; stroke-dashoffset: 0; stroke-linejoin: miter; stroke-miterlimit: 4; fill: rgb(255,255,255); fill-rule: nonzero; opacity: 1;" vector-effect="non-scaling-stroke"  transform=" translate(-3008.42, -2345.48)" d="M 2945 3086 C 2900 3065 2303 2455 2276 2401 C 2249 2350 2253 2296 2286 2248 C 2302 2226 2366 2159 2430 2099 L 2545 1990 L 2610 2055 L 2675 2120 L 2566 2226 L 2458 2332 L 2496 2373 C 2552 2432 2756 2645 2887 2779 L 2998 2894 L 3032 2868 C 3050 2854 3175 2734 3310 2603 L 3555 2363 L 3529 2329 C 3514 2310 3392 2183 3258 2045 L 3014 1796 L 2958 1848 L 2903 1900 L 2841 1834 C 2807 1798 2780 1765 2782 1761 C 2784 1757 2820 1722 2862 1683 C 2997 1558 3045 1561 3180 1699 C 3553 2082 3718 2257 3737 2288 C 3765 2334 3766 2381 3739 2429 C 3712 2477 3121 3048 3067 3078 C 3021 3103 2988 3105 2945 3086 z" stroke-linecap="round" />
</g>
		<g transform="matrix(0.13 0 0 -0.13 -38.49 -67.84)"  >
<path style="stroke: none; stroke-width: 1; stroke-dasharray: none; stroke-linecap: butt; stroke-dashoffset: 0; stroke-linejoin: miter; stroke-miterlimit: 4; fill: rgb(255,255,255); fill-rule: nonzero; opacity: 1;" vector-effect="non-scaling-stroke"  transform=" translate(-2436.32, -2334.76)" d="M 2365 3062 C 2349 3051 2261 2967 2170 2874 C 1704 2398 1704 2399 1694 2344 C 1682 2280 1702 2252 1893 2064 C 2350 1614 2378 1590 2437 1590 C 2495 1590 2532 1614 2635 1721 C 2690 1779 2827 1920 2938 2036 C 3050 2153 3150 2261 3160 2278 C 3178 2307 3183 2333 3181 2376 C 3180 2402 3087 2509 2981 2607 L 2897 2685 L 2839 2621 L 2781 2558 L 2888 2455 L 2995 2352 L 2951 2304 C 2835 2175 2457 1790 2447 1790 C 2424 1790 2151 2045 1967 2237 C 1897 2310 1890 2321 1900 2340 C 1906 2351 2028 2480 2172 2625 L 2432 2890 L 2488 2840 L 2544 2790 L 2567 2812 C 2580 2825 2604 2855 2621 2879 L 2650 2924 L 2603 2973 C 2505 3074 2431 3102 2365 3062 z" stroke-linecap="round" />
</g>
		<g transform="matrix(0.13 0 0 -0.13 -275.33 122.13)"  >
<path style="stroke: none; stroke-width: 1; stroke-dasharray: none; stroke-linecap: butt; stroke-dashoffset: 0; stroke-linejoin: miter; stroke-miterlimit: 4; fill: rgb(255,255,255); fill-rule: nonzero; opacity: 1;" vector-effect="non-scaling-stroke"  transform=" translate(-660, -910.03)" d="M 635 1131 C 629 1120 480 691 480 683 C 480 681 492 680 507 682 C 531 685 538 693 554 738 L 573 791 L 664 788 L 755 785 L 774 733 C 789 689 797 680 816 680 C 829 680 840 686 840 693 C 840 701 817 772 790 851 C 686 1151 690 1140 665 1140 C 652 1140 639 1136 635 1131 z M 699 950 C 716 898 730 852 730 848 C 730 844 699 840 660 840 C 622 840 590 841 590 843 C 590 846 645 1012 655 1039 C 663 1059 666 1053 699 950 z" stroke-linecap="round" />
</g>
		<g transform="matrix(0.13 0 0 -0.13 -232 121.91)"  >
<path style="stroke: none; stroke-width: 1; stroke-dasharray: none; stroke-linecap: butt; stroke-dashoffset: 0; stroke-linejoin: miter; stroke-miterlimit: 4; fill: rgb(255,255,255); fill-rule: nonzero; opacity: 1;" vector-effect="non-scaling-stroke"  transform=" translate(-985, -911.64)" d="M 930 963 C 930 728 937 704 1013 686 C 1037 680 1040 683 1040 704 C 1040 719 1033 729 1020 733 C 987 741 980 783 980 966 L 980 1140 L 955 1140 L 930 1140 L 930 963 z" stroke-linecap="round" />
</g>
		<g transform="matrix(0.13 0 0 -0.13 -141.87 122.13)"  >
<path style="stroke: none; stroke-width: 1; stroke-dasharray: none; stroke-linecap: butt; stroke-dashoffset: 0; stroke-linejoin: miter; stroke-miterlimit: 4; fill: rgb(255,255,255); fill-rule: nonzero; opacity: 1;" vector-effect="non-scaling-stroke"  transform=" translate(-1661, -910)" d="M 1532 913 C 1535 685 1535 685 1558 682 C 1580 679 1580 680 1580 800 C 1580 915 1581 922 1605 945 C 1622 963 1640 970 1669 970 C 1731 970 1740 950 1740 803 L 1740 680 L 1766 680 L 1792 680 L 1788 820 C 1785 955 1784 960 1759 986 C 1725 1020 1657 1029 1612 1006 L 1580 989 L 1580 1065 C 1580 1139 1579 1140 1555 1140 L 1530 1140 L 1532 913 z" stroke-linecap="round" />
</g>
		<g transform="matrix(0.13 0 0 -0.13 -26.5 121.93)"  >
<path style="stroke: none; stroke-width: 1; stroke-dasharray: none; stroke-linecap: butt; stroke-dashoffset: 0; stroke-linejoin: miter; stroke-miterlimit: 4; fill: rgb(255,255,255); fill-rule: nonzero; opacity: 1;" vector-effect="non-scaling-stroke"  transform=" translate(-2526.24, -911.54)" d="M 2474 1125 C 2471 1117 2470 1028 2472 928 C 2475 737 2482 706 2520 696 C 2531 693 2549 687 2560 684 C 2590 676 2588 722 2558 735 C 2535 745 2535 748 2532 943 L 2530 1140 L 2504 1140 C 2491 1140 2477 1133 2474 1125 z" stroke-linecap="round" />
</g>
		<g transform="matrix(0.13 0 0 -0.13 99.4 95.39)"  >
<path style="stroke: none; stroke-width: 1; stroke-dasharray: none; stroke-linecap: butt; stroke-dashoffset: 0; stroke-linejoin: miter; stroke-miterlimit: 4; fill: rgb(255,255,255); fill-rule: nonzero; opacity: 1;" vector-effect="non-scaling-stroke"  transform=" translate(-3470.53, -1110.53)" d="M 3442 1113 C 3444 1091 3451 1084 3473 1082 C 3497 1079 3500 1082 3500 1109 C 3500 1137 3497 1140 3469 1140 C 3442 1140 3439 1137 3442 1113 z" stroke-linecap="round" />
</g>
		<g transform="matrix(0.13 0 0 -0.13 203.4 95.39)"  >
<path style="stroke: none; stroke-width: 1; stroke-dasharray: none; stroke-linecap: butt; stroke-dashoffset: 0; stroke-linejoin: miter; stroke-miterlimit: 4; fill: rgb(255,255,255); fill-rule: nonzero; opacity: 1;" vector-effect="non-scaling-stroke"  transform=" translate(-4250.53, -1110.53)" d="M 4222 1113 C 4224 1091 4231 1084 4253 1082 C 4277 1079 4280 1082 4280 1109 C 4280 1137 4277 1140 4249 1140 C 4222 1140 4219 1137 4222 1113 z" stroke-linecap="round" />
</g>
		<g transform="matrix(0.13 0 0 -0.13 173.28 125.55)"  >
<path style="stroke: none; stroke-width: 1; stroke-dasharray: none; stroke-linecap: butt; stroke-dashoffset: 0; stroke-linejoin: miter; stroke-miterlimit: 4; fill: rgb(255,255,255); fill-rule: nonzero; opacity: 1;" vector-effect="non-scaling-stroke"  transform=" translate(-4024.61, -884.37)" d="M 3988 1053 C 3986 1022 3981 1014 3963 1012 C 3930 1007 3932 970 3965 970 L 3990 970 L 3990 854 C 3990 791 3994 730 4000 720 C 4010 702 4059 680 4091 680 C 4105 680 4110 687 4110 705 C 4110 724 4105 730 4087 730 C 4046 730 4040 747 4040 862 L 4040 970 L 4075 970 C 4103 970 4110 974 4110 990 C 4110 1006 4103 1010 4076 1010 C 4043 1010 4041 1012 4038 1048 C 4036 1077 4030 1086 4013 1088 C 3994 1091 3991 1086 3988 1053 z" stroke-linecap="round" />
</g>
		<g transform="matrix(0.13 0 0 -0.13 -191.93 138.15)"  >
<path style="stroke: none; stroke-width: 1; stroke-dasharray: none; stroke-linecap: butt; stroke-dashoffset: 0; stroke-linejoin: miter; stroke-miterlimit: 4; fill: rgb(255,255,255); fill-rule: nonzero; opacity: 1;" vector-effect="non-scaling-stroke"  transform=" translate(-1285.51, -789.83)" d="M 1228 1004 C 1212 996 1200 994 1200 1000 C 1200 1005 1189 1010 1175 1010 L 1150 1010 L 1150 785 L 1150 560 L 1175 560 C 1199 560 1200 562 1200 635 L 1200 711 L 1230 695 C 1292 663 1376 684 1405 740 C 1429 786 1425 924 1400 965 C 1368 1017 1285 1036 1228 1004 z M 1349 944 C 1381 904 1379 792 1346 754 C 1316 718 1260 715 1227 748 C 1208 768 1205 781 1205 849 C 1205 947 1221 970 1286 970 C 1320 970 1333 965 1349 944 z" stroke-linecap="round" />
</g>
		<g transform="matrix(0.13 0 0 -0.13 -93.37 130.3)"  >
<path style="stroke: none; stroke-width: 1; stroke-dasharray: none; stroke-linecap: butt; stroke-dashoffset: 0; stroke-linejoin: miter; stroke-miterlimit: 4; fill: rgb(255,255,255); fill-rule: nonzero; opacity: 1;" vector-effect="non-scaling-stroke"  transform=" translate(-2024.76, -848.75)" d="M 1954 1006 C 1912 987 1903 970 1925 954 C 1941 942 1946 942 1960 955 C 1980 973 2071 975 2088 958 C 2095 951 2100 929 2100 908 L 2100 870 L 2035 870 C 1966 870 1917 853 1906 825 C 1893 790 1900 741 1923 714 C 1942 692 1957 686 2004 682 C 2048 679 2065 681 2079 694 C 2095 709 2098 709 2103 695 C 2107 687 2119 680 2130 680 C 2149 680 2150 686 2150 819 C 2150 951 2149 960 2127 986 C 2107 1009 2094 1014 2044 1017 C 2008 1019 1973 1015 1954 1006 z M 2100 798 C 2100 751 2076 730 2020 730 C 1967 730 1950 743 1950 782 C 1950 818 1972 829 2043 830 L 2100 830 L 2100 798 z" stroke-linecap="round" />
</g>
		<g transform="matrix(0.13 0 0 -0.13 11.56 130.1)"  >
<path style="stroke: none; stroke-width: 1; stroke-dasharray: none; stroke-linecap: butt; stroke-dashoffset: 0; stroke-linejoin: miter; stroke-miterlimit: 4; fill: rgb(255,255,255); fill-rule: nonzero; opacity: 1;" vector-effect="non-scaling-stroke"  transform=" translate(-2811.68, -850.27)" d="M 2755 1010 C 2681 980 2651 854 2692 748 C 2728 655 2896 660 2936 755 C 2956 803 2954 907 2932 950 C 2904 1007 2817 1036 2755 1010 z M 2855 964 C 2900 946 2916 822 2881 764 C 2851 716 2778 712 2744 758 C 2712 801 2719 910 2756 951 C 2773 970 2822 976 2855 964 z" stroke-linecap="round" />
</g>
		<g transform="matrix(0.13 0 0 -0.13 60.14 138.64)"  >
<path style="stroke: none; stroke-width: 1; stroke-dasharray: none; stroke-linecap: butt; stroke-dashoffset: 0; stroke-linejoin: miter; stroke-miterlimit: 4; fill: rgb(255,255,255); fill-rule: nonzero; opacity: 1;" vector-effect="non-scaling-stroke"  transform=" translate(-3176.04, -786.21)" d="M 3111 1007 C 3066 984 3046 945 3042 871 C 3037 787 3052 739 3092 705 C 3119 682 3131 679 3174 682 C 3202 685 3233 690 3243 694 C 3270 707 3266 649 3237 622 C 3209 595 3145 592 3111 616 C 3091 631 3086 631 3073 617 C 3060 604 3061 600 3080 582 C 3127 538 3234 546 3281 596 C 3304 621 3305 626 3308 816 L 3311 1010 L 3286 1010 C 3272 1010 3260 1005 3260 1000 C 3260 994 3247 996 3230 1005 C 3195 1023 3144 1024 3111 1007 z M 3239 944 C 3271 904 3269 792 3236 754 C 3206 718 3150 715 3117 748 C 3098 768 3095 781 3095 849 C 3095 947 3111 970 3176 970 C 3210 970 3223 965 3239 944 z" stroke-linecap="round" />
</g>
		<g transform="matrix(0.13 0 0 -0.13 135.33 130.11)"  >
<path style="stroke: none; stroke-width: 1; stroke-dasharray: none; stroke-linecap: butt; stroke-dashoffset: 0; stroke-linejoin: miter; stroke-miterlimit: 4; fill: rgb(255,255,255); fill-rule: nonzero; opacity: 1;" vector-effect="non-scaling-stroke"  transform=" translate(-3740, -850.17)" d="M 3680 1013 C 3642 999 3620 966 3620 925 C 3620 869 3649 843 3726 829 C 3794 816 3810 806 3810 775 C 3810 730 3782 724 3651 742 C 3614 747 3615 723 3652 700 C 3678 683 3697 680 3747 682 C 3826 687 3860 714 3860 772 C 3860 841 3840 857 3735 875 C 3713 879 3689 886 3683 892 C 3667 905 3666 942 3682 958 C 3699 975 3780 973 3800 955 C 3814 942 3819 942 3835 954 C 3858 971 3848 988 3804 1006 C 3771 1020 3709 1023 3680 1013 z" stroke-linecap="round" />
</g>
		<g transform="matrix(0.13 0 0 -0.13 239.13 130.2)"  >
<path style="stroke: none; stroke-width: 1; stroke-dasharray: none; stroke-linecap: butt; stroke-dashoffset: 0; stroke-linejoin: miter; stroke-miterlimit: 4; fill: rgb(255,255,255); fill-rule: nonzero; opacity: 1;" vector-effect="non-scaling-stroke"  transform=" translate(-4518.47, -849.47)" d="M 4474 1010 C 4400 980 4367 843 4411 748 C 4440 685 4554 659 4619 700 C 4651 720 4652 722 4634 741 C 4619 757 4615 758 4601 746 C 4555 706 4481 722 4455 777 C 4431 827 4440 913 4472 947 C 4496 972 4498 973 4610 958 C 4627 956 4635 960 4638 973 C 4645 1007 4532 1033 4474 1010 z" stroke-linecap="round" />
</g>
		<g transform="matrix(0.13 0 0 -0.13 283.33 130.11)"  >
<path style="stroke: none; stroke-width: 1; stroke-dasharray: none; stroke-linecap: butt; stroke-dashoffset: 0; stroke-linejoin: miter; stroke-miterlimit: 4; fill: rgb(255,255,255); fill-rule: nonzero; opacity: 1;" vector-effect="non-scaling-stroke"  transform=" translate(-4850, -850.17)" d="M 4790 1013 C 4752 999 4730 966 4730 925 C 4730 869 4759 843 4836 829 C 4904 816 4920 806 4920 775 C 4920 730 4892 724 4761 742 C 4724 747 4725 723 4762 700 C 4788 683 4807 680 4857 682 C 4936 687 4970 714 4970 772 C 4970 841 4950 857 4845 875 C 4823 879 4799 886 4793 892 C 4777 905 4776 942 4792 958 C 4809 975 4890 973 4910 955 C 4924 942 4929 942 4945 954 C 4968 971 4958 988 4914 1006 C 4881 1020 4819 1023 4790 1013 z" stroke-linecap="round" />
</g>
		<g transform="matrix(0.13 0 0 -0.13 100 130.87)"  >
<path style="stroke: none; stroke-width: 1; stroke-dasharray: none; stroke-linecap: butt; stroke-dashoffset: 0; stroke-linejoin: miter; stroke-miterlimit: 4; fill: rgb(255,255,255); fill-rule: nonzero; opacity: 1;" vector-effect="non-scaling-stroke"  transform=" translate(-3475, -844.5)" d="M 3450 844 L 3450 679 L 3473 682 C 3495 685 3495 688 3498 848 L 3500 1010 L 3475 1010 L 3450 1010 L 3450 844 z" stroke-linecap="round" />
</g>
		<g transform="matrix(0.13 0 0 -0.13 204 130.87)"  >
<path style="stroke: none; stroke-width: 1; stroke-dasharray: none; stroke-linecap: butt; stroke-dashoffset: 0; stroke-linejoin: miter; stroke-miterlimit: 4; fill: rgb(255,255,255); fill-rule: nonzero; opacity: 1;" vector-effect="non-scaling-stroke"  transform=" translate(-4255, -844.5)" d="M 4230 844 L 4230 679 L 4253 682 C 4275 685 4275 688 4278 848 L 4280 1010 L 4255 1010 L 4230 1010 L 4230 844 z" stroke-linecap="round" />
</g>
</g>
</g>
</svg>