<?xml version="1.0" standalone="no"?>
<!DOCTYPE svg PUBLIC "-//W3C//DTD SVG 20010904//EN"
 "http://www.w3.org/TR/2001/REC-SVG-20010904/DTD/svg10.dtd">
<svg version="1.0" xmlns="http://www.w3.org/2000/svg"
 width="552.000000pt" height="377.000000pt" viewBox="0 0 552.000000 377.000000"
 preserveAspectRatio="xMidYMid meet">

<g transform="translate(0.000000,377.000000) scale(0.100000,-0.100000)"
fill="#000000" stroke="none">
<path d="M2945 3086 c-45 -21 -642 -631 -669 -685 -27 -51 -23 -105 10 -153
16 -22 80 -89 144 -149 l115 -109 65 65 65 65 -109 106 -108 106 38 41 c56 59
260 272 391 406 l111 115 34 -26 c18 -14 143 -134 278 -265 l245 -240 -26 -34
c-15 -19 -137 -146 -271 -284 l-244 -249 -56 52 -55 52 -62 -66 c-34 -36 -61
-69 -59 -73 2 -4 38 -39 80 -78 135 -125 183 -122 318 16 373 383 538 558 557
589 28 46 29 93 2 141 -27 48 -618 619 -672 649 -46 25 -79 27 -122 8z"/>
<path d="M2365 3062 c-16 -11 -104 -95 -195 -188 -466 -476 -466 -475 -476
-530 -12 -64 8 -92 199 -280 457 -450 485 -474 544 -474 58 0 95 24 198 131
55 58 192 199 303 315 112 117 212 225 222 242 18 29 23 55 21 98 -1 26 -94
133 -200 231 l-84 78 -58 -64 -58 -63 107 -103 107 -103 -44 -48 c-116 -129
-494 -514 -504 -514 -23 0 -296 255 -480 447 -70 73 -77 84 -67 103 6 11 128
140 272 285 l260 265 56 -50 56 -50 23 22 c13 13 37 43 54 67 l29 45 -47 49
c-98 101 -172 129 -238 89z"/>
<path d="M635 1131 c-6 -11 -155 -440 -155 -448 0 -2 12 -3 27 -1 24 3 31 11
47 56 l19 53 91 -3 91 -3 19 -52 c15 -44 23 -53 42 -53 13 0 24 6 24 13 0 8
-23 79 -50 158 -104 300 -100 289 -125 289 -13 0 -26 -4 -30 -9z m64 -181 c17
-52 31 -98 31 -102 0 -4 -31 -8 -70 -8 -38 0 -70 1 -70 3 0 3 55 169 65 196 8
20 11 14 44 -89z"/>
<path d="M930 963 c0 -235 7 -259 83 -277 24 -6 27 -3 27 18 0 15 -7 25 -20
29 -33 8 -40 50 -40 233 l0 174 -25 0 -25 0 0 -177z"/>
<path d="M1532 913 c3 -228 3 -228 26 -231 22 -3 22 -2 22 118 0 115 1 122 25
145 17 18 35 25 64 25 62 0 71 -20 71 -167 l0 -123 26 0 26 0 -4 140 c-3 135
-4 140 -29 166 -34 34 -102 43 -147 20 l-32 -17 0 76 c0 74 -1 75 -25 75 l-25
0 2 -227z"/>
<path d="M2474 1125 c-3 -8 -4 -97 -2 -197 3 -191 10 -222 48 -232 11 -3 29
-9 40 -12 30 -8 28 38 -2 51 -23 10 -23 13 -26 208 l-2 197 -26 0 c-13 0 -27
-7 -30 -15z"/>
<path d="M3442 1113 c2 -22 9 -29 31 -31 24 -3 27 0 27 27 0 28 -3 31 -31 31
-27 0 -30 -3 -27 -27z"/>
<path d="M4222 1113 c2 -22 9 -29 31 -31 24 -3 27 0 27 27 0 28 -3 31 -31 31
-27 0 -30 -3 -27 -27z"/>
<path d="M3988 1053 c-2 -31 -7 -39 -25 -41 -33 -5 -31 -42 2 -42 l25 0 0
-116 c0 -63 4 -124 10 -134 10 -18 59 -40 91 -40 14 0 19 7 19 25 0 19 -5 25
-23 25 -41 0 -47 17 -47 132 l0 108 35 0 c28 0 35 4 35 20 0 16 -7 20 -34 20
-33 0 -35 2 -38 38 -2 29 -8 38 -25 40 -19 3 -22 -2 -25 -35z"/>
<path d="M1228 1004 c-16 -8 -28 -10 -28 -4 0 5 -11 10 -25 10 l-25 0 0 -225
0 -225 25 0 c24 0 25 2 25 75 l0 76 30 -16 c62 -32 146 -11 175 45 24 46 20
184 -5 225 -32 52 -115 71 -172 39z m121 -60 c32 -40 30 -152 -3 -190 -30 -36
-86 -39 -119 -6 -19 20 -22 33 -22 101 0 98 16 121 81 121 34 0 47 -5 63 -26z"/>
<path d="M1954 1006 c-42 -19 -51 -36 -29 -52 16 -12 21 -12 35 1 20 18 111
20 128 3 7 -7 12 -29 12 -50 l0 -38 -65 0 c-69 0 -118 -17 -129 -45 -13 -35
-6 -84 17 -111 19 -22 34 -28 81 -32 44 -3 61 -1 75 12 16 15 19 15 24 1 4 -8
16 -15 27 -15 19 0 20 6 20 139 0 132 -1 141 -23 167 -20 23 -33 28 -83 31
-36 2 -71 -2 -90 -11z m146 -208 c0 -47 -24 -68 -80 -68 -53 0 -70 13 -70 52
0 36 22 47 93 48 l57 0 0 -32z"/>
<path d="M2755 1010 c-74 -30 -104 -156 -63 -262 36 -93 204 -88 244 7 20 48
18 152 -4 195 -28 57 -115 86 -177 60z m100 -46 c45 -18 61 -142 26 -200 -30
-48 -103 -52 -137 -6 -32 43 -25 152 12 193 17 19 66 25 99 13z"/>
<path d="M3111 1007 c-45 -23 -65 -62 -69 -136 -5 -84 10 -132 50 -166 27 -23
39 -26 82 -23 28 3 59 8 69 12 27 13 23 -45 -6 -72 -28 -27 -92 -30 -126 -6
-20 15 -25 15 -38 1 -13 -13 -12 -17 7 -35 47 -44 154 -36 201 14 23 25 24 30
27 220 l3 194 -25 0 c-14 0 -26 -5 -26 -10 0 -6 -13 -4 -30 5 -35 18 -86 19
-119 2z m128 -63 c32 -40 30 -152 -3 -190 -30 -36 -86 -39 -119 -6 -19 20 -22
33 -22 101 0 98 16 121 81 121 34 0 47 -5 63 -26z"/>
<path d="M3680 1013 c-38 -14 -60 -47 -60 -88 0 -56 29 -82 106 -96 68 -13 84
-23 84 -54 0 -45 -28 -51 -159 -33 -37 5 -36 -19 1 -42 26 -17 45 -20 95 -18
79 5 113 32 113 90 0 69 -20 85 -125 103 -22 4 -46 11 -52 17 -16 13 -17 50
-1 66 17 17 98 15 118 -3 14 -13 19 -13 35 -1 23 17 13 34 -31 52 -33 14 -95
17 -124 7z"/>
<path d="M4474 1010 c-74 -30 -107 -167 -63 -262 29 -63 143 -89 208 -48 32
20 33 22 15 41 -15 16 -19 17 -33 5 -46 -40 -120 -24 -146 31 -24 50 -15 136
17 170 24 25 26 26 138 11 17 -2 25 2 28 15 7 34 -106 60 -164 37z"/>
<path d="M4790 1013 c-38 -14 -60 -47 -60 -88 0 -56 29 -82 106 -96 68 -13 84
-23 84 -54 0 -45 -28 -51 -159 -33 -37 5 -36 -19 1 -42 26 -17 45 -20 95 -18
79 5 113 32 113 90 0 69 -20 85 -125 103 -22 4 -46 11 -52 17 -16 13 -17 50
-1 66 17 17 98 15 118 -3 14 -13 19 -13 35 -1 23 17 13 34 -31 52 -33 14 -95
17 -124 7z"/>
<path d="M3450 844 l0 -165 23 3 c22 3 22 6 25 166 l2 162 -25 0 -25 0 0 -166z"/>
<path d="M4230 844 l0 -165 23 3 c22 3 22 6 25 166 l2 162 -25 0 -25 0 0 -166z"/>
</g>
</svg>
